<?xml version="1.0" encoding="utf-8"?>
<!-- Generator: Adobe Illustrator 22.0.1, SVG Export Plug-In . SVG Version: 6.00 Build 0)  -->
<svg version="1.1" id="Слой_1" xmlns="http://www.w3.org/2000/svg" xmlns:xlink="http://www.w3.org/1999/xlink" x="0px" y="0px"
	 viewBox="0 0 90.646 92.919" style="enable-background:new 0 0 90.646 92.919;" xml:space="preserve">
<path style="fill:none;stroke:#1E2C4F;stroke-width:2;stroke-linecap:round;stroke-linejoin:round;stroke-miterlimit:10;" d="
	M1,85.1V26.003h13.638v45.46V85.1c0,3.75-3.069,6.819-6.819,6.819S1,88.851,1,85.1z M14.638,71.462V23.73V1h75.008v84.1
	c0,3.75-3.069,6.819-6.819,6.819H16.911H8.387h3.978 M80.554,12.365H26.003 M74.872,23.73H31.685 M80.554,35.095H53.278
	 M80.554,46.46H53.278 M80.554,57.824H53.278 M80.554,69.189H53.278 M80.554,80.554H53.278 M41.914,69.189H23.73 M41.914,80.554
	H23.73 M26.003,40.777h13.638v17.047H26.003V40.777z"/>
</svg>
