<?xml version="1.0" encoding="utf-8"?>
<!-- Generator: Adobe Illustrator 22.0.1, SVG Export Plug-In . SVG Version: 6.00 Build 0)  -->
<svg version="1.1" id="Слой_1" xmlns="http://www.w3.org/2000/svg" xmlns:xlink="http://www.w3.org/1999/xlink" x="0px" y="0px"
	 viewBox="0 0 155 155" style="enable-background:new 0 0 155 155;" xml:space="preserve">
<circle style="fill:#EDEEF0;" cx="77.5" cy="77.5" r="77.5"/>
<g transform="translate(0,-288.53332)">
	<path style="fill:none;stroke:#1E2C4F;stroke-width:2;stroke-linecap:round;stroke-linejoin:round;stroke-miterlimit:10;" d="
		M107.631,363.985c-7.755,5.713-17.697,7.566-26.989,5.028"/>
	<path style="fill:none;stroke:#1E2C4F;stroke-width:2;stroke-linecap:round;stroke-linejoin:round;stroke-miterlimit:10;" d="
		M107.631,370.684L107.631,370.684c-8.474,6.243-19.505,7.843-29.403,4.264l0,0.002"/>
	<path style="fill:none;stroke:#1E2C4F;stroke-width:2;stroke-linecap:round;stroke-linejoin:round;stroke-miterlimit:10;" d="
		M66.511,370.459c-2.336-0.692-3.951-0.811-4.626-0.867"/>
	<path style="fill:none;stroke:#1E2C4F;stroke-width:2;stroke-linecap:round;stroke-linejoin:round;stroke-miterlimit:10;" d="
		M48.597,374.233c-0.42,0.308-0.83,0.63-1.228,0.965"/>
	<path style="fill:none;stroke:#1E2C4F;stroke-width:2;stroke-linecap:round;stroke-linejoin:round;stroke-miterlimit:10;" d="
		M107.631,377.389c-9.99,7.36-23.369,8.171-34.175,2.072c-8.352-4.714-18.753-3.741-26.086,2.439l0,0"/>
	<path style="fill:none;stroke:#1E2C4F;stroke-width:2;stroke-linecap:round;stroke-linejoin:round;stroke-miterlimit:10;" d="
		M98.382,341.834l3.183,3.88l-13.387,11.079l-3.183-3.88L98.382,341.834z M88.178,356.793l-5.636,1.316l2.453-5.196"/>
	<path style="fill:none;stroke:#1E2C4F;stroke-width:2;stroke-linecap:round;stroke-linejoin:round;stroke-miterlimit:10;" d="
		M107.631,384.091L107.631,384.091c-9.99,7.36-23.369,8.172-34.175,2.073c-8.352-4.714-18.753-3.741-26.086,2.439l0-0.001"/>
	<path style="fill:none;stroke:#1E2C4F;stroke-width:2;stroke-linecap:round;stroke-linejoin:round;stroke-miterlimit:10;" d="
		M51.248,370.324c0.171-1.592,1.346-2.54,2.939-2.369c1.592,0.171,2.54,1.346,2.369,2.939c-0.171,1.592-1.346,2.54-2.939,2.369
		C52.025,373.091,51.077,371.916,51.248,370.324"/>
	<path style="fill:none;stroke:#1E2C4F;stroke-width:2;stroke-linecap:round;stroke-linejoin:round;stroke-miterlimit:10;" d="
		M56.549,370.96L56.549,370.96l2.333-10.487c0.635,0.337,1.256,0.806,1.583,1.512c0.891,1.706,2.649,2.834,4.506,3.034l0.265,0.028"
		/>
	<path style="fill:none;stroke:#1E2C4F;stroke-width:2;stroke-linecap:round;stroke-linejoin:round;stroke-miterlimit:10;" d="
		M70.645,371.087c0.395-1.552,1.692-2.324,3.244-1.929c1.552,0.395,2.324,1.692,1.929,3.244s-1.692,2.324-3.244,1.929
		S70.25,372.639,70.645,371.087"/>
	<path style="fill:none;stroke:#1E2C4F;stroke-width:2;stroke-linecap:round;stroke-linejoin:round;stroke-miterlimit:10;" d="
		M75.802,372.467L75.802,372.467l3.795-10.051"/>
</g>
</svg>
