<?xml version="1.0" encoding="utf-8"?>
<!-- Generator: Adobe Illustrator 22.0.1, SVG Export Plug-In . SVG Version: 6.00 Build 0)  -->
<svg version="1.1" id="Слой_1" xmlns="http://www.w3.org/2000/svg" xmlns:xlink="http://www.w3.org/1999/xlink" x="0px" y="0px"
	 viewBox="0 0 155 155" style="enable-background:new 0 0 155 155;" xml:space="preserve">
<circle style="fill:#EDEEF0;" cx="77.5" cy="77.5" r="77.5"/>
<g>
	<g>
		<path style="fill:none;stroke:#1E2C4F;stroke-width:2;stroke-linecap:round;stroke-linejoin:round;stroke-miterlimit:10;" d="
			M61.891,100.644v4.306h-8.073c-2.078,0-3.768-1.69-3.768-3.768V53.818c0-2.078,1.69-3.768,3.768-3.768h8.073v4.306 M61.891,96.338
			v4.306h-5.921 M61.891,92.032v4.306h-5.921 M61.891,85.573v6.459h-5.921 M61.891,81.268v4.306h-5.921 M55.971,73.732h5.921v7.535
			h-5.921 M55.971,69.427h5.921v4.306 M55.971,65.121h5.921v4.306 M55.971,58.662h5.921v6.459 M55.971,54.356h5.921v4.306
			 M68.876,102.847l-2.14,1.88l-1.772-1.772c-0.21-0.21-0.551-0.21-0.761,0l-2.311,1.995 M61.891,50.05l2.31,1.995
			c0.21,0.21,0.551,0.21,0.761,0l1.773-1.772l2.14,1.836 M68.876,52.109l2.165-1.836l2.169,1.836 M73.21,102.847l-2.169,1.88
			l-2.165-1.88 M68.876,102.847V52.109 M73.21,102.847V52.109 M77.5,102.847V52.109 M81.834,102.847V52.109 M86.08,102.847V52.109
			 M77.5,102.847l-2.153,1.88l-2.137-1.88 M73.21,52.109l2.137-1.836l2.153,1.836 M81.834,102.847l-2.181,1.88l-2.153-1.88
			 M77.5,52.109l2.153-1.836l2.181,1.836 M86.08,102.847l-2.121,1.88l-2.125-1.88 M81.834,52.109l2.125-1.836l2.121,1.836
			 M86.08,52.109l2.185-1.836l2.153,1.93c0.105,0.105-0.138,0,0,0c0.138,0-0.109,0.01-0.003-0.094l2.694-2.059 M93.109,104.95
			l-2.31-1.995c-0.211-0.211-0.551-0.211-0.762-0.001l-1.772,1.773l-2.185-1.88 M104.95,101.182c0,2.078-1.69,3.768-3.768,3.768
			h-8.073V50.05h8.073c2.078,0,3.768,1.69,3.768,3.768V101.182z"/>
	</g>
	<circle style="fill:#1E2C4F;" cx="97.976" cy="54.917" r="1"/>
	<circle style="fill:#1E2C4F;" cx="100.076" cy="61.317" r="1"/>
	<circle style="fill:#1E2C4F;" cx="97.976" cy="67.716" r="1"/>
	<circle style="fill:#1E2C4F;" cx="100.076" cy="74.216" r="1"/>
	<circle style="fill:#1E2C4F;" cx="97.976" cy="80.716" r="1"/>
	<circle style="fill:#1E2C4F;" cx="100.176" cy="87.117" r="1"/>
	<circle style="fill:#1E2C4F;" cx="97.976" cy="93.617" r="1"/>
	<circle style="fill:#1E2C4F;" cx="100.176" cy="100.017" r="1"/>
</g>
</svg>
