<?xml version="1.0" encoding="utf-8"?>
<!-- Generator: Adobe Illustrator 22.0.1, SVG Export Plug-In . SVG Version: 6.00 Build 0)  -->
<svg version="1.1" id="Слой_1" xmlns="http://www.w3.org/2000/svg" xmlns:xlink="http://www.w3.org/1999/xlink" x="0px" y="0px"
	 viewBox="0 0 101.394 91.398" style="enable-background:new 0 0 101.394 91.398;" xml:space="preserve">
<title>Artboard 32</title>
<g>
	<path style="fill:none;stroke:#1E2C4F;stroke-width:2;stroke-linecap:round;stroke-linejoin:round;stroke-miterlimit:10;" d="
		M29.034,90.398h42.051 M88.542,7.956h5.658c3.417,0.007,6.186,2.776,6.193,6.193v47.289 M45.786,7.956h10.449 M1,61.438V14.149
		c0.007-3.417,2.776-6.186,6.193-6.193h5.658 M45.6,89.917V74.625 M54.52,74.625v15.291 M100.394,68.025
		c-0.007,3.417-2.776,6.186-6.193,6.193H7.193C3.776,74.211,1.007,71.443,1,68.025v-6.55h99.394V68.025z"/>
	<path style="fill:none;stroke:#1E2C4F;stroke-width:2;stroke-linecap:round;stroke-linejoin:round;stroke-miterlimit:10;" d="
		M50.098,66.483c0.908,0,1.644,0.736,1.644,1.644c0,0.908-0.736,1.644-1.644,1.644c-0.908,0-1.644-0.736-1.644-1.644
		c0.047-0.873,0.77-1.556,1.644-1.555V66.483z"/>
</g>
<g>
	<path style="fill:none;stroke:#1E2C4F;stroke-width:2;stroke-linecap:round;stroke-linejoin:round;stroke-miterlimit:10;" d="
		M17.893,37.588v-6.823 M28.347,30.764v6.823 M17.893,30.618V1h10.454v29.618H17.893z M28.347,37.869v6.687H17.893v-6.687H28.347z
		 M12.667,48.041h17.423h59.237 M31.832,44.557V7.969h10.454v36.588H31.832z M45.77,28.662v-6.755 M56.223,21.907v6.755
		 M45.77,21.966v-7.028h10.454v7.028H45.77z M56.223,29.081v15.476H45.77V29.081H56.223z M70.161,11.454v33.103H59.708V11.454
		H70.161z M59.708,11.24V4.485h10.454v6.755 M84.099,34.103v10.454H73.646V34.103H84.099z M73.646,33.753V7.969h10.454v25.784"/>

		<rect x="77.13" y="37.588" style="fill:none;stroke:#1E2C4F;stroke-width:2;stroke-linecap:round;stroke-linejoin:round;stroke-miterlimit:10;" width="3.485" height="3.485"/>
</g>
</svg>
