<?xml version="1.0" encoding="utf-8"?>
<!-- Generator: Adobe Illustrator 22.0.1, SVG Export Plug-In . SVG Version: 6.00 Build 0)  -->
<svg version="1.1" id="Layer_1" xmlns="http://www.w3.org/2000/svg" xmlns:xlink="http://www.w3.org/1999/xlink" x="0px" y="0px"
	 viewBox="0 0 48.694 60.437" style="enable-background:new 0 0 48.694 60.437;" xml:space="preserve">
<path style="fill:#A73031;" d="M21.574,0.154C10.555,1.373,1.615,10.142,0.211,21.139C-1.392,33.704,6.294,44.691,17.55,47.802
	c2.249,0.621,4.107,5.202,5.003,7.357l1.47,4.939c0.107,0.451,0.749,0.452,0.857,0.001l1.496-5.005
	c0.891-2.14,2.734-6.709,4.963-7.344c10.192-2.906,17.355-12.282,17.355-23.406C48.694,9.985,36.262-1.471,21.574,0.154z
	 M24.35,29.33c-2.554,0-4.625-2.071-4.625-4.625s2.071-4.625,4.625-4.625s4.625,2.071,4.625,4.625S26.904,29.33,24.35,29.33z"/>
</svg>
