<?xml version="1.0" encoding="utf-8"?>
<!-- Generator: Adobe Illustrator 22.0.1, SVG Export Plug-In . SVG Version: 6.00 Build 0)  -->
<svg version="1.1" id="Слой_1" xmlns="http://www.w3.org/2000/svg" xmlns:xlink="http://www.w3.org/1999/xlink" x="0px" y="0px"
	 viewBox="0 0 155 155" style="enable-background:new 0 0 155 155;" xml:space="preserve">
<circle style="fill:#EDEEF0;" cx="77.5" cy="77.5" r="77.5"/>
<g id="Слой_2">
	<g>
		<path style="fill:none;stroke:#1E2C4F;stroke-width:2;stroke-linecap:round;stroke-linejoin:round;stroke-miterlimit:10;" d="
			M95.834,51.816l2.872,2.872 M99.025,47.561l3.128,3.128 M104.351,52.992l3.079,3.079 M100.408,56.391l2.938,2.938 M51.26,102.242
			l-1.383-1.809c-0.745-1.17-1.277-2.34-1.702-3.723c-2.234-7.66,1.915-15.638,9.362-18.298c0.213,0.213,0.426,0.532,0.745,0.745
			c1.277,1.17,2.872,1.702,4.574,1.596s3.298-0.851,4.362-2.128c2.128-2.447,2.128-5.957,0.106-8.404
			c0.106-0.213,0.213-0.426,0.426-0.638c1.809-2.872,4.681-4.787,7.979-5.532c2.872-0.638,5.745-0.213,8.404,1.064l1.971,1.153
			 M64.025,87.242l-2.872-2.872 M64.025,87.242l8.511-8.511l3.83,3.83l-8.511,8.511L64.025,87.242z M59.557,92.029l4.468-4.787
			 M67.855,91.072l-4.787,4.468 M51.26,102.242l4.681-4.681c0,0,0.106-0.106,0.106-0.213l3.511-5.319l3.511,3.511l-5.319,3.511
			c-0.106,0-0.106,0.106-0.213,0.106l-4.681,4.681C52.323,103.412,51.685,102.774,51.26,102.242z M70.834,93.838l-2.979-2.766
			 M88.741,69.07l1.242,2.002c0,0-0.106,0,0,0c2.979,6.064,0.638,13.404-5.213,16.596c-0.213-0.213-0.532-0.426-0.851-0.638
			c-1.489-0.851-3.191-1.17-4.787-0.745c-1.702,0.426-3.085,1.383-3.936,2.872c-1.702,2.766-0.957,6.277,1.489,8.298
			c-1.596,4.574-5.213,7.979-9.894,9.362c-4.255,1.277-8.617,0.532-12.128-1.702l-1.809-1.277 M72.536,78.731l26.17-24.043
			l1.702,1.702L89.345,68.412l0,0L76.366,82.561 M106.579,51.072l-6.17,5.319l-1.702-1.702l5.319-6.17
			c0.319-0.426,0.851-0.638,1.383-0.638c0.957,0,1.809,0.851,1.809,1.809C107.217,50.221,107.004,50.753,106.579,51.072z"/>
		<path style="fill:none;stroke:#1E2C4F;stroke-width:2;stroke-linecap:round;stroke-linejoin:round;stroke-miterlimit:10;" d="
			M66.791,59.689L66.791,59.689l0.532-5.745l7.34-1.489l-0.316,5.191 M67.323,53.944l0.426-4.149l7.34-1.596l-0.426,4.255
			 M64.664,57.645c1.277,0,2.128,0.851,2.128,2.128S65.94,61.9,64.664,61.9s-2.128-0.851-2.128-2.128S63.387,57.645,64.664,57.645z
			 M96.579,93.678c1.277,0,2.128,0.851,2.128,2.128s-0.851,2.128-2.128,2.128s-2.128-0.851-2.128-2.128S95.302,93.678,96.579,93.678
			z M72.215,55.642c1.277,0,2.128,0.851,2.128,2.128s-0.851,2.128-2.128,2.128s-2.128-0.851-2.128-2.128
			S70.939,55.642,72.215,55.642z"/>
		<path style="fill:none;stroke:#1E2C4F;stroke-width:2;stroke-linecap:round;stroke-linejoin:round;stroke-miterlimit:10;" d="
			M98.706,95.859L98.706,95.859l0.957-8.511c0.532,0.213,1.064,0.532,1.383,1.064c0.851,1.277,2.34,2.021,3.83,2.021h0.213"/>
	</g>
</g>
</svg>
