<?xml version="1.0" encoding="utf-8"?>
<!-- Generator: Adobe Illustrator 22.0.1, SVG Export Plug-In . SVG Version: 6.00 Build 0)  -->
<svg version="1.1" id="Слой_1" xmlns="http://www.w3.org/2000/svg" xmlns:xlink="http://www.w3.org/1999/xlink" x="0px" y="0px"
	 viewBox="0 0 155 155" style="enable-background:new 0 0 155 155;" xml:space="preserve">
<circle style="fill:#EDEEF0;" cx="77.5" cy="77.5" r="77.5"/>
<g>
	<path style="fill:none;stroke:#1E2C4F;stroke-width:2;stroke-linecap:round;stroke-linejoin:round;stroke-miterlimit:10;" d="
		M107.275,93.572v12.761h-2.268l-1.823-12.761 M47.725,80.569V64.618c0-8.809,7.141-15.951,15.951-15.951
		c5.021,0,9.748,2.364,12.761,6.38l2.552,3.403c3.423,4.541,8.775,7.217,14.462,7.231h4.322c5.245,0.006,9.496,4.257,9.502,9.502
		v5.385 M107.275,80.542v4.28H47.725v-4.28H107.275z M107.275,84.796v8.534H47.725v-8.534 M100.908,89.049v-4.254 M96.654,89.049
		v-4.254 M92.401,89.049v-4.254 M88.147,89.049v-4.254 M83.894,89.049v-4.254 M79.64,89.049v-4.254 M74.875,84.796v4.254
		 M70.622,84.796v4.254 M66.368,84.796v4.254 M62.115,84.796v4.254 M57.861,84.796v4.254 M53.608,84.796v4.254 M51.816,93.572
		l-1.823,12.761h-2.268V93.572"/>
	<path style="fill:none;stroke:#1E2C4F;stroke-width:2;stroke-linecap:round;stroke-linejoin:round;stroke-miterlimit:10;" d="
		M60.751,53.289c0.956-0.245,1.939-0.368,2.925-0.368"/>
	<path style="fill:none;stroke:#1E2C4F;stroke-width:2;stroke-linecap:round;stroke-linejoin:round;stroke-miterlimit:10;" d="
		M51.979,66.745v-2.127c0.009-4.177,2.236-8.036,5.849-10.133"/>
</g>
</svg>
