<?xml version="1.0" encoding="utf-8"?>
<!-- Generator: Adobe Illustrator 22.0.1, SVG Export Plug-In . SVG Version: 6.00 Build 0)  -->
<svg version="1.1" id="Слой_1" xmlns="http://www.w3.org/2000/svg" xmlns:xlink="http://www.w3.org/1999/xlink" x="0px" y="0px"
	 viewBox="0 0 97.472 111.014" style="enable-background:new 0 0 97.472 111.014;" xml:space="preserve">
<g>
	<path style="fill:none;stroke:#1E2C4F;stroke-width:2;stroke-linecap:round;stroke-linejoin:round;stroke-miterlimit:10;" d="
		M63.924,65.305H30.643c-1.532,0-2.773,1.241-2.773,2.772v10.089h38.828V68.077C66.698,66.546,65.456,65.305,63.924,65.305z"/>
	<path style="fill:none;stroke:#1E2C4F;stroke-width:2;stroke-linecap:round;stroke-linejoin:round;stroke-miterlimit:10;" d="
		M53.385,57.101H41.182c-2.573,0-4.659,2.085-4.659,4.657v3.548h21.522v-3.548C58.045,59.185,55.959,57.101,53.385,57.101z"/>
	<path style="fill:none;stroke:#1E2C4F;stroke-width:2;stroke-linecap:round;stroke-linejoin:round;stroke-miterlimit:10;" d="
		M51.388,46.555v10.537h-7.704V46.555c2.272,1.597,3.852,2.484,3.852,2.484S49.116,48.151,51.388,46.555z"/>
	<path style="fill:none;stroke:#1E2C4F;stroke-width:2;stroke-linecap:round;stroke-linejoin:round;stroke-miterlimit:10;" d="
		M26.663,5.133c0-2.093,0.036-3.654,0.124-4.133h41.5c0.089,0.479,0.124,2.04,0.124,4.133"/>
	<path style="fill:none;stroke:#1E2C4F;stroke-width:2;stroke-linecap:round;stroke-linejoin:round;stroke-miterlimit:10;" d="
		M30.94,34.368c-2.432-3.495-4.153-7.433-4.153-11.601c0-1.49-0.178-11.69-0.124-17.633"/>
	<path style="fill:none;stroke:#1E2C4F;stroke-width:2;stroke-linecap:round;stroke-linejoin:round;stroke-miterlimit:10;" d="
		M51.388,46.555c3.603-2.519,8.946-6.776,12.674-12.063"/>
	<path style="fill:none;stroke:#1E2C4F;stroke-width:2;stroke-linecap:round;stroke-linejoin:round;stroke-miterlimit:10;" d="
		M30.94,34.368c3.71,5.34,9.124,9.65,12.745,12.187"/>
	<path style="fill:none;stroke:#1E2C4F;stroke-width:2;stroke-linecap:round;stroke-linejoin:round;stroke-miterlimit:10;" d="
		M30.94,34.368C21.018,29.17,14.167,18.03,14.167,5.133h12.496"/>
	<path style="fill:none;stroke:#1E2C4F;stroke-width:2;stroke-linecap:round;stroke-linejoin:round;stroke-miterlimit:10;" d="
		M81.066,5.133c0,13.003-6.958,24.196-17.004,29.359c2.467-3.512,4.225-7.504,4.225-11.726c0-1.49,0.177-11.69,0.124-17.633
		L81.066,5.133z"/>
</g>
<path style="fill:#1E2C4F;" d="M92.534,67.444c0.087-5.48-3.119-15.498-3.39-0.054S92.436,72.827,92.534,67.444z"/>
<path style="fill:#1E2C4F;" d="M88.927,82.791c-2.448,4.592,2.718,1.993,5.708-3.032C98.458,73.444,99.974,59.69,88.927,82.791z"/>
<path style="fill:#1E2C4F;" d="M91.418,85.433c-11.794,8.372-12.899,7.711-13.213,8.892c-0.314,1.181,3.715,1.31,8.307-1.083
	C92.588,89.971,96.584,81.838,91.418,85.433z"/>
<path style="fill:#1E2C4F;" d="M74.35,97.13c-19.56,0.542-0.91,7.018,7.527,1.332C85.646,95.852,78.53,97,74.35,97.13z"/>
<path style="fill:#1E2C4F;" d="M52.862,103.975c-0.195,1.949,13.776,0.498,14.394-1.289C68.166,100,53.068,100.823,52.862,103.975z"
	/>
<path style="fill:#1E2C4F;" d="M86.231,81.394c2.773-5.242,0-13.267-1.581-12.325c-0.888,0.531-0.812,3.682-0.758,7.202
	C83.956,79.282,83.783,85.52,86.231,81.394z"/>
<path style="fill:#1E2C4F;" d="M77.133,89.744c5.827-2.166,6.747-11.101,4.646-10.982c-1.083,0.087-2.025,2.827-3.325,5.231
	C76.982,86.646,74.263,90.729,77.133,89.744z"/>
<path style="fill:#1E2C4F;" d="M72.238,89.863c2.166-1.354,4.332-4.473,3.162-5.242c-0.996-0.628-4.679,2.166-5.87,2.751
	C59.036,93.014,64.613,94.899,72.238,89.863z"/>
<path style="fill:#1E2C4F;" d="M49.657,98.343c1.798,0.596,15.336-8.664,13.527-9.921C60.303,86.462,46.776,97.238,49.657,98.343z"
	/>
<path style="fill:#1E2C4F;" d="M8.328,67.39c-0.271-15.444-3.477-5.415-3.39,0.054C5.025,72.913,8.664,82.975,8.328,67.39z"/>
<path style="fill:#1E2C4F;" d="M8.545,82.791c-11.047-23.101-9.531-9.347-5.708-3.032C5.826,84.783,10.992,87.383,8.545,82.791z"/>
<path style="fill:#1E2C4F;" d="M19.267,94.325c-0.314-1.181-1.419-0.52-13.213-8.892c-5.166-3.596-1.17,4.538,4.906,7.819
	C15.552,95.635,19.613,95.505,19.267,94.325z"/>
<path style="fill:#1E2C4F;" d="M23.122,97.13c-4.181-0.152-11.296-1.278-7.581,1.332C24.032,104.148,42.682,97.672,23.122,97.13z"/>
<path style="fill:#1E2C4F;" d="M44.61,103.975c-0.206-3.152-15.303-3.975-14.393-1.289C30.833,104.473,44.805,105.924,44.61,103.975
	z"/>
<path style="fill:#1E2C4F;" d="M13.581,76.271c0.054-3.52,0.13-6.671-0.758-7.202c-1.614-0.942-4.332,7.083-1.581,12.325
	C13.689,85.52,13.516,79.282,13.581,76.271z"/>
<path style="fill:#1E2C4F;" d="M20.339,89.744c2.87,0.986,0.152-3.097-1.321-5.751c-1.3-2.404-2.264-5.144-3.325-5.231
	C13.592,78.643,14.512,87.534,20.339,89.744z"/>
<path style="fill:#1E2C4F;" d="M25.234,89.863c7.581,5.036,13.202,3.152,2.708-2.491c-1.191-0.574-4.874-3.379-5.87-2.751
	C20.891,85.39,23.122,88.509,25.234,89.863z"/>
<path style="fill:#1E2C4F;" d="M47.815,98.343c2.881-1.083-10.646-11.913-13.527-9.921C32.491,89.657,46.018,98.939,47.815,98.343z"
	/>
<path style="fill:#1E2C4F;" d="M50.166,102.805c5.1-3.031,10.628-5.276,16.397-6.661c10.007-2.686,19.43-6.249,23.166-17.621
	c-2.101-0.715,0.412,0-4.267,6.26c-5.264,7.061-15.487,9.097-25.007,11.838c-4.132,1.186-8.077,2.947-11.718,5.231
	c-3.642-2.284-7.586-4.045-11.718-5.231c-9.52-2.74-19.69-4.776-25.007-11.838c-4.679-6.249-2.166-6.975-4.267-6.26
	c3.736,11.372,13.17,14.935,23.166,17.621c5.769,1.384,11.297,3.63,16.397,6.661c-2.846,1.868-5.204,4.389-6.877,7.354l2.09,0.856
	c1.32-2.971,3.481-5.49,6.217-7.245c2.736,1.756,4.897,4.275,6.217,7.245l2.09-0.856C55.37,107.194,53.012,104.673,50.166,102.805z"
	/>
<polygon style="fill:none;stroke:#1E2C4F;stroke-width:2;stroke-linecap:round;stroke-linejoin:round;stroke-miterlimit:10;" points="
	47.609,7.507 50.599,13.566 57.285,14.538 52.447,19.254 53.589,25.913 47.609,22.769 41.628,25.913 42.77,19.254 37.932,14.538
	44.618,13.566 "/>
</svg>
