<?xml version="1.0" encoding="utf-8"?>
<!-- Generator: Adobe Illustrator 22.0.1, SVG Export Plug-In . SVG Version: 6.00 Build 0)  -->
<svg version="1.1" id="Слой_1" xmlns="http://www.w3.org/2000/svg" xmlns:xlink="http://www.w3.org/1999/xlink" x="0px" y="0px"
	 viewBox="0 0 155 155" style="enable-background:new 0 0 155 155;" xml:space="preserve">
<circle style="fill:#EDEEF0;" cx="77.5" cy="77.5" r="77.5"/>
<g id="Слой_2">
	<g>
		<path style="fill:none;stroke:#1E2C4F;stroke-width:2;stroke-linecap:round;stroke-linejoin:round;stroke-miterlimit:10;" d="
			M50,105.976l4.275-4.275 M78.528,84.31l-21.94,19.43l-4.649-4.649L71.7,76.779 M76.997,70.798l4.488-5.067l8.464,8.464
			l-5.433,4.812 M81.485,65.731l4.956-5.828 M95.774,69.238l-5.825,4.958 M104.344,65.264c-0.427,0.563-1.669,1.742-1.669,1.742
			c-1.775,1.458-4.001,2.254-6.297,2.252c-0.199,0-0.404-0.008-0.603-0.021l-9.333-9.334c-0.013-0.199-0.021-0.398-0.021-0.602
			c-0.002-2.297,0.795-4.523,2.252-6.297c0,0,0.676-0.797,1.408-1.408 M104.083,65.598L90.08,51.595
			c4.254-3.48,10.523-2.852,14.003,1.401C107.081,56.662,107.081,61.933,104.083,65.598z"/>
	</g>
	<path style="fill:none;stroke:#1E2C4F;stroke-width:2;stroke-linecap:round;stroke-linejoin:round;stroke-miterlimit:10;" d="
		M95.771,97.968c0.469,1.74,1.438,4.225,3.394,6.186c1.951,1.956,3.591,2.907,5.016,2.907c0.808,0,1.52-0.304,2.117-0.903
		c1.17-1.172,1.774-3.364-1.999-7.145c-1.954-1.959-4.434-2.932-6.171-3.403c-0.243-0.066-0.506,0.003-0.684,0.183l-1.49,1.493
		C95.775,97.464,95.706,97.724,95.771,97.968z"/>
	<path style="fill:none;stroke:#1E2C4F;stroke-width:2;stroke-linecap:round;stroke-linejoin:round;stroke-miterlimit:10;" d="
		M95.842,97.733l-45.22-46.119c-0.004-0.005-0.003-0.014-0.008-0.018c-0.01-0.011-0.025-0.014-0.037-0.025
		c-0.384-0.386-0.422-0.978-0.082-1.318c0.338-0.341,0.929-0.304,1.314,0.082c0.011,0.011,0.014,0.025,0.025,0.037
		c0.005,0.005,0.013,0.003,0.018,0.009l46.007,45.33"/>
</g>
</svg>
